<svg width="284" height="95" viewBox="0 0 284 95" fill="none" xmlns="http://www.w3.org/2000/svg">
<path d="M258.3 72.7999C266.3 72.7999 274 69.2999 278.8 62.7999C282.1 58.2999 283.7 52.5999 283.7 46.9999C283.7 41.3999 282.1 35.7 278.8 31.2C274 24.7 266.4 21.2 258.3 21.2C250.3 21.2 242.6 24.7 237.8 31.2C234.5 35.7 232.9 41.3999 232.9 46.9999C232.9 52.5999 234.5 58.2999 237.8 62.7999C242.7 69.2999 250.3 72.7999 258.3 72.7999ZM246 41.0999C247.9 35.4999 252.3 31.0999 258.4 31.0999C264.5 31.0999 268.9 35.5999 270.8 41.0999C271.4 42.8999 271.8 44.9999 271.8 46.9999C271.8 48.9999 271.4 51.1999 270.8 52.8999C268.9 58.4999 264.5 62.8999 258.4 62.8999C252.3 62.8999 247.9 58.3999 246 52.8999C245.4 51.0999 245 48.9999 245 46.9999C245 44.9999 245.4 42.7999 246 41.0999Z" fill="#FF5A00"/>
<path d="M74.4 73H82.9C83.7 73 84.4 72.3 84.4 71.5V1.59998C84.4 0.799976 83.7 0.0999756 82.9 0.0999756H74.4C73.6 0.0999756 72.9 0.799976 72.9 1.59998V71.5C72.9 72.3 73.6 73 74.4 73Z" fill="#FF5A00"/>
<path d="M54.4 73H62.9C63.7 73 64.4 72.3 64.4 71.5V1.59998C64.4 0.799976 63.7 0.0999756 62.9 0.0999756H54.4C53.6 0.0999756 52.9 0.799976 52.9 1.59998V71.5C52.9 72.3 53.6 73 54.4 73Z" fill="#FF5A00"/>
<path d="M203.6 73H212.1C212.9 73 213.6 72.3 213.6 71.5V43C213.6 34.1 219.5 29.8 229.1 31.8C230.3 32 231.1 31.4 231.1 30.1V24.1C231.1 22.6 231 22 229.8 21.7C228.2 21.3 224.8 21.1 223.9 21.1C217.7 21.1 212.2 23.6 208.4 27.4C205.6 30.2 202.1 34.6 202.1 42.2V71.5C202.1 72.3 202.8 73 203.6 73Z" fill="#FF5A00"/>
<path d="M169.4 72.7999C174.7 72.7999 179.7 71.2999 184 68.3999V74.5999C184 83.0999 176.6 84.5999 171.8 84.8999C168.6 85.0999 164.1 84.6999 162 84.3999C160.7 84.1999 159.8 84.3999 159.8 85.7999V93.2999C159.8 93.8999 160.2 94.4999 161.1 94.4999C172.1 95.3999 179.5 95.1999 185.1 92.0999C189.1 89.7999 191.8 86.0999 193.2 81.7999C194.2 78.6999 194.6 74.7999 194.6 71.4999V46.9999C194.6 41.3999 193.1 35.8 189.7 31.2C184.9 24.7 177.3 21.2 169.2 21.2C161.2 21.2 153.5 24.7 148.7 31.2C142.2 40.2 142.1 53.7999 148.7 62.7999C153.7 69.2999 161.3 72.7999 169.4 72.7999ZM157 41.0999C158.8 35.4999 163.3 31.0999 169.4 31.0999C183.1 31.0999 183.5 44.9999 183.5 46.9999C183.5 48.9999 183 62.9999 169.4 62.9999C163.3 62.9999 158.9 58.4999 157 52.9999C156.4 51.1999 156 49.0999 156 47.0999C156 44.9999 156.4 42.7999 157 41.0999Z" fill="#FF5A00"/>
<path d="M116.3 72.8C124.5 73.1 129.9 71.7 134 69.3C134.8 68.8 135 68.3 135 66.8V60.2C135 58.8 134.2 58.2 132.9 59C128.5 61.8 123.2 63.5 116.4 63C109.6 62.5 104 57.7 103.4 51H137C137.7 51 138.3 50.4 138.4 49.6C139 40.4 136.3 21.1 115.7 21.1C100.6 21.1 94 31.3 91.8 39.8C91.2 42.1 90.9 44.5 90.9 46.9C90.9 52.5 92.5 58.2 95.8 62.7C100.6 69.3 108.2 72.5 116.3 72.8ZM115.6 31.1C120.6 31.1 126.4 33.9 126.4 42H103.5C103.6 38.2 106.7 31.1 115.6 31.1Z" fill="#FF5A00"/>
<path d="M5.49999 69.2C8.79999 71.8 13.2 73 18.7 73H22.7H43.7C44.5 73 45.2 72.3 45.2 71.5V57V41.8C45.2 35 43.7 29.9 40.5 26.4C37.1 22.8 30.7 21.1 24.7 21.1C18.7 21.1 12.5 22.7 7.39999 25.7C7.09999 25.9 6.89999 26.3 6.89999 26.6V26.7L7.39999 34.1C7.49999 35.1 8.7 35.4 9.6 34.9C17 30.3 25.9 29.4 30.4 31.7C33.6 33.3 34.4 36.7 34.4 38.8V39.9H22C16.7 39.9 0.399986 41.8 0.399986 56.8V56.9V57V57.1C0.199986 62.4 1.99999 66.5 5.49999 69.2ZM22.5 49.1H34.2V57.1V63.9H22.7H19.4C17.4 63.8 15.7 63.3 14.2 62.1C12.5 60.8 11.7 59.3 11.7 57.2C11.7 57.2 11.7 57.2 11.7 57.1C11.7 54.4 13.5 49.1 22.5 49.1Z" fill="#FF5A00"/>
</svg>
