<svg width="128" height="48" viewBox="0 0 128 48" fill="none" xmlns="http://www.w3.org/2000/svg">
<g clip-path="url(#clip0_158_325)">
<path d="M71.68 0H94.078V48H71.68V0Z" fill="#AE0000"/>
<path d="M37.105 0H71.679V48H37.105V0Z" fill="#FF8600"/>
<path d="M94.084 0H96.644V48H94.084V0Z" fill="#0065B1"/>
<path d="M0 0H33.266V48H0V0Z" fill="#E90A0A"/>
<path d="M96.64 0H128V48H96.64V0Z" fill="#008F20"/>
<path d="M33.266 0H37.105V48H33.266V0Z" fill="#26221E"/>
<path d="M39.755 25.247V33.92H35.362V25.92C35.362 23.47 34.262 22.343 32.489 22.343C30.518 22.343 29.138 23.611 29.138 26.314V33.914H24.745V25.914C24.745 23.464 23.704 22.337 21.873 22.337C19.929 22.337 18.55 23.605 18.55 26.308V33.908H14.157V22.149H12.467V18.77H17.677L17.902 21.108C18.4839 20.2762 19.2667 19.605 20.1776 19.1569C21.0885 18.7088 22.0979 18.4983 23.112 18.545C24.0865 18.493 25.0579 18.6938 25.9319 19.128C26.8059 19.5622 27.5527 20.215 28.1 21.023C28.761 20.2203 29.597 19.5796 30.5439 19.1501C31.4909 18.7205 32.5237 18.5136 33.563 18.545C37.163 18.545 39.763 20.629 39.763 25.245M60.762 28.542C60.762 31.949 58.062 33.921 52.877 33.921H43.19V17.926H41.106V14.209H52.314C57.242 14.209 59.776 16.264 59.776 19.334C59.7943 20.2305 59.5579 21.1137 59.0943 21.8812C58.6307 22.6487 57.959 23.269 57.157 23.67C58.22 23.9552 59.1551 24.5921 59.8097 25.4769C60.4644 26.3616 60.8001 27.442 60.762 28.542ZM47.724 17.642V22.29H51.751C53.975 22.29 55.186 21.502 55.186 19.953C55.186 18.404 53.975 17.644 51.751 17.644L47.724 17.642ZM56.144 28.061C56.144 26.4 54.904 25.611 52.544 25.611H47.724V30.483H52.539C54.904 30.483 56.139 29.751 56.139 28.061M78.614 18.77V33.92H74.414V32.174C73.8278 32.8414 73.0968 33.366 72.2768 33.7078C71.4569 34.0496 70.5697 34.1995 69.683 34.146C65.403 34.146 62.108 31.105 62.108 26.346C62.108 21.587 65.408 18.546 69.683 18.546C70.5261 18.5041 71.3682 18.646 72.1509 18.962C72.9337 19.278 73.6383 19.7605 74.216 20.376V18.77H78.614ZM74.307 26.345C74.307 23.727 72.616 22.15 70.449 22.15C69.9092 22.1416 69.3737 22.2471 68.8773 22.4594C68.381 22.6718 67.9349 22.9864 67.5682 23.3826C67.2015 23.7788 66.9224 24.2478 66.749 24.7591C66.5757 25.2704 66.5119 25.8125 66.562 26.35C66.5119 26.8875 66.5757 27.4296 66.749 27.9409C66.9224 28.4522 67.2015 28.9212 67.5682 29.3174C67.9349 29.7137 68.381 30.0282 68.8773 30.2406C69.3737 30.4529 69.9092 30.5584 70.449 30.55C72.616 30.55 74.307 28.974 74.307 26.35M97.876 25.247V33.92H93.483V25.92C93.483 23.47 92.356 22.343 90.413 22.343C88.301 22.343 86.781 23.643 86.781 26.427V33.917H82.388V22.149H80.7V18.77H85.91L86.135 21.136C86.7593 20.2844 87.5857 19.6017 88.5398 19.1493C89.4939 18.697 90.5456 18.4893 91.6 18.545C95.176 18.545 97.88 20.629 97.88 25.245M116.405 33.92H111.421L107.14 27.359H105.112V33.92H100.72V13.026H105.112V24.008H107.14L111.196 18.77H116.095L110.942 25.416L116.405 33.92Z" fill="white"/>
</g>
<defs>
<clipPath id="clip0_158_325">
<rect width="128" height="48" fill="white"/>
</clipPath>
</defs>
</svg>
