<svg width="146" height="36" viewBox="0 0 146 36" fill="none" xmlns="http://www.w3.org/2000/svg">
<path d="M11.1188 12.8878L2.838 4.79398H2.7939V12.4646C2.7939 13.4608 3.20379 14.0551 4.63599 14.0979V14.5853H0.409897V14.0979C1.3838 14.0551 1.7319 13.4608 1.7319 12.4646V2.61338C1.7319 1.34348 1.256 1.02278 0 0.979982V0.492582H2.7323C3.1641 1.10828 3.6445 1.59568 4.2702 2.18578L12.6388 10.2797H12.6828V2.60908C12.6828 1.61278 12.2908 1.01848 10.8408 0.975782V0.488281H15.0888V0.975782C14.1148 1.01848 13.7668 1.61278 13.7668 2.60908V12.4603C13.7668 13.2427 13.7668 13.9439 13.8108 14.7478H12.8988C12.4668 14.2176 12.0748 13.7943 11.1228 12.8836" fill="#BDAD7D"/>
<path d="M30.4328 14.0969V14.5844H24.7347V14.0969C26.0127 14.0328 26.1448 13.5667 25.7308 12.4636L24.5798 9.3466C24.4308 9.4963 24.1038 9.5177 23.7998 9.5177H21.1998C20.5918 9.5177 20.3318 9.5818 20.0938 10.1761L19.2038 12.4636C18.8338 13.4598 19.1818 14.0328 20.6758 14.0969V14.5844H16.5157V14.0969C17.2517 14.0328 17.7057 13.4598 18.0977 12.4636L22.1298 2.1635C22.4338 1.4238 22.6937 0.7439 22.8877 0H24.0598C24.2538 0.7439 24.5137 1.4195 24.8177 2.1635L28.7178 12.4636C29.2818 13.9259 29.5638 14.0328 30.4328 14.0969ZM24.1478 8.205L22.5218 3.9678H22.4778L20.6357 8.7566C20.7677 8.6711 20.9838 8.6711 21.2438 8.6711H23.7558C24.1478 8.6711 24.2978 8.5856 24.1478 8.205Z" fill="#BDAD7D"/>
<path d="M40.9698 12.8022L37.3518 7.88505C37.0258 7.44045 36.8538 7.35485 36.5498 7.33355V6.63235C39.2158 6.63235 40.2998 5.40515 40.2998 3.79325C40.2998 1.92905 38.9338 1.22785 37.5288 1.22785C36.5328 1.22785 36.1178 1.42025 36.1178 2.60455V12.4559C36.1178 13.8754 36.4668 14.0464 37.8548 14.0892V14.5766H31.9798V14.0892C32.9538 14.0464 33.3018 13.8754 33.3018 12.4559V2.60455C33.3018 1.18505 32.9538 1.01405 31.5708 0.971252V0.483852H33.3018C35.4038 0.483852 36.8808 0.376953 38.0038 0.376953C41.9048 0.376953 43.3148 1.66825 43.3148 3.47255C43.3148 5.27695 41.9048 6.52545 40.0398 6.88455V6.92735L43.9848 12.396C44.9798 13.7514 45.5228 14.0892 46.2578 14.0892V14.5766C45.7378 14.7476 45.0858 14.8118 44.5048 14.8118C42.5958 14.8118 41.7278 13.901 40.9698 12.7979" fill="#BDAD7D"/>
<path d="M61.9078 7.50438C61.9078 11.9554 58.6328 14.9013 54.5838 14.9013C50.5338 14.9013 47.2808 12.0409 47.2808 7.56848C47.2808 3.09608 50.5558 0.175781 54.6058 0.175781C58.6548 0.175781 61.9078 3.03628 61.9078 7.50868V7.50438ZM58.8928 8.10298C58.8928 3.59208 56.7248 1.06948 54.2128 1.06948C51.8288 1.06948 50.2908 3.31418 50.2908 6.98268C50.2908 11.4979 52.4588 14.0163 54.9708 14.0163C57.3548 14.0163 58.8928 11.7715 58.8928 8.10298Z" fill="#BDAD7D"/>
<path d="M63.8628 14.0988C64.8148 14.0561 65.1848 13.885 65.1848 12.4655V2.61432C65.1848 1.19482 64.8368 1.02382 63.4528 0.981018V0.493618H65.1848C66.9168 0.493618 68.5208 0.386719 69.9968 0.386719C74.8318 0.386719 78.1898 2.40052 78.1898 7.10382C78.1898 12.1064 74.0908 14.582 70.1248 14.582H63.8628V14.0946V14.0988ZM75.1758 7.42452C75.1758 2.99492 72.8798 1.23752 69.7548 1.23752C68.4108 1.23752 67.9968 1.42992 67.9968 2.61432V12.4655C67.9968 13.5473 68.3448 13.7354 69.5788 13.7354C73.3288 13.7354 75.1708 11.1272 75.1708 7.42022" fill="#BDAD7D"/>
<path d="M95.3768 7.50438C95.3768 11.9554 92.1018 14.9013 88.0518 14.9013C84.0018 14.9013 80.7498 12.0409 80.7498 7.56848C80.7498 3.09608 84.0237 0.175781 88.0737 0.175781C92.1237 0.175781 95.3768 3.03628 95.3768 7.50868V7.50438ZM92.3618 8.10298C92.3618 3.59208 90.1937 1.06948 87.6817 1.06948C85.2977 1.06948 83.7598 3.31418 83.7598 6.98268C83.7598 11.4979 85.9278 14.0163 88.4398 14.0163C90.8238 14.0163 92.3618 11.7715 92.3618 8.10298Z" fill="#BDAD7D"/>
<path d="M101.259 12.91L98.3988 2.61407C97.9888 1.15177 97.7508 1.04486 96.9888 0.980764V0.493265H102.687L102.664 0.980764C101.276 1.04486 101.082 1.51097 101.387 2.61407L103.489 10.1137H103.533L107.499 0.322266H108.865C109.125 1.10477 109.363 1.82736 109.689 2.60976L112.875 10.1094H112.963L115.153 2.60976C115.457 1.61356 114.96 1.04057 113.571 0.976465L113.593 0.489065H117.798V0.976465C117.123 1.04057 116.625 1.61356 116.321 2.60976L113.329 12.9057C113.135 13.6497 113.047 14.0088 112.919 14.7485H111.553C111.403 14.0045 111.249 13.6454 110.945 12.9057L107.283 4.13197H107.239L103.621 12.9057C103.317 13.6668 103.211 14.0088 103.035 14.7485H101.669C101.536 14.0045 101.453 13.6454 101.259 12.9057" fill="#BDAD7D"/>
<path d="M130.741 0.492188V0.979687C130.089 1.04379 129.591 1.61679 129.004 2.61299L126.294 7.31629C126.056 7.76089 125.884 8.01749 125.884 8.75719V12.4642C125.884 13.8837 126.233 14.0548 127.616 14.0932V14.5807H121.742V14.0932C122.716 14.0505 123.064 13.8795 123.064 12.4642V8.75719C123.064 8.01749 122.954 7.78229 122.694 7.31629L119.984 2.61299C119.16 1.17209 118.878 1.04379 118.031 0.979687V0.492188H123.818V0.979687C122.54 1.04379 122.518 1.53119 123.143 2.61299L125.417 6.68349H125.461L127.801 2.61299C128.387 1.59539 127.978 1.04379 126.673 0.979687V0.492188H130.728H130.741Z" fill="#BDAD7D"/>
<path d="M0.413803 34.7453C1.3877 34.7026 1.7358 34.5315 1.7358 33.112V23.2608C1.7358 21.8413 1.38771 21.6702 0.00390625 21.6275V21.1401H1.7358C4.0538 21.1401 5.0541 21.0332 7.0238 21.0332C10.3198 21.0332 11.7918 22.2004 11.7918 23.915C11.7918 25.6295 10.6028 26.6044 8.7998 27.0918V27.1346C11.4658 27.3441 13.1538 28.6182 13.1538 30.7775C13.1538 33.1291 11.3338 35.2285 7.17381 35.2285H0.409401V34.741L0.413803 34.7453ZM5.6799 27.0747C7.3938 26.9251 8.8878 26.0999 8.8878 24.1501C8.8878 22.3501 7.47781 21.884 6.19981 21.884C4.92191 21.884 4.5518 22.0764 4.5518 23.2608V27.3911C4.9219 27.1389 5.204 27.1175 5.6799 27.0747ZM10.2538 30.8673C10.2538 28.7465 8.53981 27.8785 6.43781 27.8785C5.15991 27.8785 4.5518 28.2163 4.5518 29.1271V33.112C4.5518 34.1938 4.89991 34.3819 6.34981 34.3819C9.20981 34.3819 10.2498 32.5818 10.2498 30.863" fill="#BDAD7D"/>
<path d="M27.8968 34.745V35.2324H22.1988V34.745C23.4768 34.6809 23.6088 34.2148 23.1948 33.1117L22.0448 29.9947C21.8948 30.1443 21.5688 30.1657 21.2648 30.1657H18.6648C18.0558 30.1657 17.7958 30.2299 17.5588 30.8242L16.6678 33.1117C16.3028 34.1079 16.6458 34.6809 18.1448 34.745V35.2324H13.9848V34.745C14.7208 34.6809 15.1738 34.1079 15.5668 33.1117L19.5988 22.8115C19.9028 22.0718 20.1628 21.392 20.3568 20.6523H21.5288C21.7228 21.3963 21.9828 22.0718 22.2868 22.8115L26.1868 33.1117C26.7508 34.574 27.0328 34.6809 27.8968 34.745ZM21.6128 28.8531L19.9868 24.6159H19.9428L18.1008 29.4047C18.2278 29.3191 18.4488 29.3191 18.7088 29.3191H21.2248C21.6168 29.3191 21.7668 29.2336 21.6168 28.8531" fill="#BDAD7D"/>
<path d="M40.1888 33.5358L31.9088 25.4419H31.8638V33.1125C31.8638 34.1088 32.2738 34.7031 33.7058 34.7458V35.2333H29.4798V34.7458C30.4538 34.7031 30.8018 34.1088 30.8018 33.1125V23.2613C30.8018 21.9914 30.3258 21.6708 29.0708 21.628V21.1406H31.8028C32.2348 21.7563 32.7148 22.2437 33.3408 22.838L41.7088 30.9319H41.7528V23.2613C41.7528 22.2651 41.3608 21.6708 39.9108 21.628V21.1406H44.1588V21.628C43.1858 21.6708 42.8368 22.2651 42.8368 23.2613V33.1125C42.8368 33.895 42.8368 34.5962 42.8808 35.4H41.9688C41.5368 34.8698 41.1448 34.4465 40.1928 33.5358" fill="#BDAD7D"/>
<path d="M55.6908 33.4499L52.0068 28.4089C51.6578 27.9642 51.5088 27.8573 51.2708 27.8573C51.0108 27.8573 50.7948 28.0284 50.7948 28.5372V33.1164C50.7948 34.536 51.1428 34.707 52.5268 34.7498V35.2372H46.6518V34.7498C47.6258 34.707 47.9738 34.536 47.9738 33.1164V23.2652C47.9738 21.8457 47.6258 21.6747 46.2418 21.6319V21.1445H52.1168V21.6319C51.1428 21.6747 50.7948 21.8457 50.7948 23.2652V27.0364H50.8388L55.6068 23.2011C56.1708 22.7564 56.3868 22.4828 56.3868 22.2049C56.3868 21.8457 56.0608 21.6747 55.1708 21.6319V21.1445H59.9388V21.6319C59.0708 21.7388 58.4448 22.1621 57.5768 22.8633L54.0418 25.7024C53.8048 25.8948 53.8048 26.0872 54.0418 26.4036L58.7888 33.0566C59.7628 34.412 60.3268 34.7498 61.0408 34.7498V35.2372C60.5428 35.4082 59.8678 35.4723 59.2648 35.4723C57.3558 35.4723 56.4878 34.5616 55.6908 33.4585" fill="#BDAD7D"/>
<path d="M68.2847 34.7453C69.2587 34.7026 69.6068 34.5315 69.6068 33.112V23.2608C69.6068 21.8413 69.2588 21.6702 67.8748 21.6275V21.1401H69.6068C71.6428 21.1401 73.3347 21.0332 74.2027 21.0332C78.0417 21.0332 79.7298 22.4954 79.7298 24.4665C79.7298 26.6087 77.8207 28.8106 72.8587 28.3874V27.6861C75.6527 27.8572 76.7148 26.2452 76.7148 24.5093C76.7148 22.7734 75.4807 21.8797 73.8107 21.8797C72.8367 21.8797 72.4227 22.0935 72.4227 23.2565V33.1077C72.4227 34.5273 72.7708 34.694 74.3748 34.741V35.2285H68.2847V34.741V34.7453Z" fill="#BDAD7D"/>
<path d="M96.5058 28.1566C96.5058 32.6076 93.2317 35.5536 89.1817 35.5536C85.1317 35.5536 81.8748 32.6931 81.8748 28.2208C81.8748 23.7484 85.1487 20.8281 89.1987 20.8281C93.2487 20.8281 96.5058 23.6885 96.5058 28.1609V28.1566ZM93.4917 28.7552C93.4917 24.2401 91.3228 21.7217 88.8118 21.7217C86.4268 21.7217 84.8887 23.9664 84.8887 27.635C84.8887 32.1501 87.0577 34.6685 89.5697 34.6685C91.9537 34.6685 93.4917 32.4238 93.4917 28.7552Z" fill="#BDAD7D"/>
<path d="M99.1098 34.7458C100.062 34.7031 100.432 34.5321 100.432 33.1125V23.2613C100.432 21.8418 100.084 21.6708 98.6958 21.628V21.1406H104.57V21.628C103.596 21.6708 103.248 21.8418 103.248 23.2613V33.1125C103.248 34.1943 103.596 34.3824 104.896 34.3824H106.544C108.558 34.3824 109.166 33.2151 109.298 31.817H109.796L109.624 35.229H99.1138V34.7416L99.1098 34.7458Z" fill="#BDAD7D"/>
<path d="M111.551 32.7751C111.551 32.2236 111.701 31.4625 112.159 30.8254H112.657C112.745 32.9248 114.023 34.6393 116.191 34.6393C118.1 34.6393 118.813 33.3908 118.813 32.2449C118.813 28.726 111.943 29.2348 111.943 24.7838C111.943 22.3467 114.001 20.8203 117.143 20.8203C118.681 20.8203 119.959 21.1153 120.722 21.3932V24.6342H120.224C119.748 22.5134 118.62 21.731 116.993 21.731C115.151 21.731 114.477 22.7914 114.477 23.7235C114.477 26.7763 121.347 26.4343 121.347 31.2444C121.347 33.998 119.095 35.5458 116.015 35.5458C114.023 35.5458 111.551 34.8659 111.551 32.7708" fill="#BDAD7D"/>
<path d="M132.992 33.4499L129.308 28.4089C128.96 27.9642 128.81 27.8573 128.572 27.8573C128.312 27.8573 128.096 28.0284 128.096 28.5372V33.1164C128.096 34.536 128.444 34.707 129.828 34.7498V35.2372H123.954V34.7498C124.927 34.707 125.276 34.536 125.276 33.1164V23.2652C125.276 21.8457 124.927 21.6747 123.539 21.6319V21.1445H129.414V21.6319C128.44 21.6747 128.092 21.8457 128.092 23.2652V27.0364H128.136L132.904 23.2011C133.468 22.7564 133.684 22.4828 133.684 22.2049C133.684 21.8457 133.358 21.6747 132.468 21.6319V21.1445H137.236V21.6319C136.368 21.7388 135.742 22.1621 134.874 22.8633L131.339 25.7024C131.101 25.8948 131.101 26.0872 131.339 26.4036L136.086 33.0566C137.059 34.412 137.624 34.7498 138.337 34.7498V35.2372C137.839 35.4082 137.17 35.4723 136.561 35.4723C134.653 35.4723 133.79 34.5616 132.983 33.4585" fill="#BDAD7D"/>
<path d="M139.926 34.7458C140.9 34.7031 141.248 34.5321 141.248 33.1125V23.2613C141.248 21.8418 140.9 21.6708 139.512 21.628V21.1406H145.386V21.628C144.412 21.6708 144.064 21.8418 144.064 23.2613V33.1125C144.064 34.5321 144.412 34.6988 145.796 34.7458V35.2333H139.922V34.7458H139.926Z" fill="#BDAD7D"/>
</svg>
