<svg width="111" height="28" viewBox="0 0 111 28" fill="none" xmlns="http://www.w3.org/2000/svg">
<g clip-path="url(#clip0_162_371)">
<path d="M87.508 19.8339C88.2519 19.8339 89.1132 19.4815 89.1132 19.4815L88.1736 16.2318C87.8212 15.018 87.273 14.3916 86.49 14.1566V14.0783C87.4688 13.726 88.6826 12.6297 88.6826 11.2984C88.6826 8.98839 86.9207 8.00955 83.3968 8.00955C81.909 8.00955 80.5386 8.08786 79.6381 8.24447V19.4424H82.3788V14.9006H83.2011C84.4931 14.9006 85.1196 15.4487 85.472 16.8191L86.0201 18.8551C86.2942 19.599 86.8815 19.8339 87.508 19.8339ZM83.5535 13.217H82.4572V9.96722C82.6921 9.88891 83.1228 9.81061 83.6709 9.81061C85.1587 9.81061 85.9418 10.4371 85.9418 11.5334C85.9418 12.6297 85.0804 13.217 83.5535 13.217ZM95.5736 19.6381C99.3714 19.6381 101.407 17.1715 101.407 13.6476C101.407 10.4762 99.4889 7.89209 95.7693 7.89209C91.9714 7.89209 89.9355 10.4762 89.9355 13.6476C89.9746 16.6625 91.7757 19.6381 95.5736 19.6381ZM95.7302 17.5238C93.6942 17.5238 92.872 15.7228 92.872 13.5693C92.872 11.4551 93.655 9.96722 95.7302 9.96722C97.7662 9.96722 98.5492 11.6508 98.5492 13.6868C98.5492 15.9577 97.727 17.5238 95.7302 17.5238ZM52.6222 14.6656H56.146V12.5513H52.6222V10.2021H56.5767C57.3206 10.2021 57.6339 9.92807 57.6339 8.83177C57.6339 8.59685 57.6339 8.28362 57.5947 8.0487H49.9206V19.4032H57.8296C57.8688 19.2074 57.8688 18.8942 57.8688 18.6201C57.8688 17.563 57.5556 17.2889 56.8117 17.2889H52.5831L52.6222 14.6656ZM59.5524 19.4424H67.2656C67.3048 19.2074 67.3048 18.9334 67.3048 18.6593C67.3048 17.6021 66.9915 17.3281 66.2476 17.3281H62.2931V9.18415C62.2931 8.20532 61.6275 7.89209 60.8445 7.89209C60.2572 7.89209 59.9439 8.00955 59.5524 8.20532V19.4424ZM106.38 19.6381C109.59 19.6381 111 17.9937 111 16.1926C111 14.3916 109.943 13.491 107.594 12.6688C105.949 12.0815 105.323 11.964 105.323 11.1027C105.323 10.5154 105.832 10.0064 107.437 10.0064C108.69 10.0064 109.59 10.4371 110.139 10.7503C110.139 10.7503 110.608 9.96722 110.608 9.34077C110.608 8.94923 110.413 8.5577 109.825 8.36193C109.238 8.16616 108.338 7.93124 106.889 7.93124C103.952 7.93124 102.465 9.26246 102.465 11.1027C102.465 12.982 103.678 13.8434 105.832 14.4699C107.672 15.018 108.142 15.527 108.142 16.3101C108.142 17.054 107.711 17.5238 105.949 17.5238C104.579 17.5238 103.6 17.054 102.856 16.6233C102.856 16.6233 102.347 17.6413 102.347 18.1894C102.347 18.6984 102.621 18.9334 103.13 19.1683C103.796 19.4424 104.814 19.6381 106.38 19.6381ZM43.7736 19.6381C46.9841 19.6381 48.3937 17.9937 48.3937 16.1926C48.3937 14.3916 47.3365 13.491 44.9873 12.6688C43.3429 12.0815 42.7164 11.964 42.7164 11.1027C42.7164 10.5154 43.2254 10.0064 44.8307 10.0064C46.0836 10.0064 46.9841 10.4371 47.5323 10.7503C47.5323 10.7503 48.0021 9.96722 48.0021 9.34077C48.0021 8.94923 47.8064 8.5577 47.2191 8.36193C46.6318 8.16616 45.7312 7.93124 44.2826 7.93124C41.346 7.93124 39.8582 9.26246 39.8582 11.1027C39.8582 12.982 41.072 13.8434 43.2254 14.4699C45.0656 15.018 45.5355 15.527 45.5355 16.3101C45.5355 17.054 45.1048 17.5238 43.3429 17.5238C41.9725 17.5238 40.9937 17.054 40.2497 16.6233C40.2497 16.6233 39.7408 17.6413 39.7408 18.1894C39.7408 18.6984 40.0148 18.9334 40.5238 19.1683C41.1503 19.4424 42.2074 19.6381 43.7736 19.6381ZM73.6085 19.6381C75.0963 19.6381 76.5058 19.364 77.4064 19.0508V13.1387H73.0995V15.0572H74.8222V17.3672C74.5482 17.4847 74.0783 17.563 73.6476 17.563C71.3376 17.563 69.9281 15.9969 69.9281 13.7651C69.9281 11.6117 71.2201 10.0064 73.491 10.0064C74.4307 10.0064 75.3312 10.2413 76.3101 10.7111C76.545 10.2021 76.8191 9.41907 76.8191 8.98839C76.8191 8.636 76.5841 8.32278 76.0751 8.16616C75.4878 7.9704 74.6656 7.89209 73.8434 7.89209C69.5757 7.89209 67.0307 10.163 67.0307 13.8826C67.0307 15.527 67.6963 17.054 68.7926 18.0328C70.0064 19.09 71.4942 19.6381 73.6085 19.6381Z" fill="#ED1B2F"/>
<mask id="mask0_162_371" style="mask-type:luminance" maskUnits="userSpaceOnUse" x="-1" y="0" width="35" height="28">
<path d="M10.8847 24.8063C5.28572 24.5714 -1.7619 5.50368 3.71958 2.80209C7.24339 1.04019 29.8349 3.89839 31.3228 8.16611C33.3587 14.2349 16.7185 24.8063 11.0413 24.8063H10.8847ZM1.95768 2.21479C-3.24973 6.59998 2.70159 25.8635 10.1407 27.1164C20.4381 28.8391 36.1778 15.0571 33.163 8.32273C30.9704 3.31109 18.5587 0.766113 9.98413 0.766113C6.2254 0.766113 3.17143 1.23595 1.95768 2.21479Z" fill="white"/>
</mask>
<g mask="url(#mask0_162_371)">
<path d="M48.8244 8.71429L24.9799 46.6148L-15.9354 20.8519L8.02647 -17.0095L48.8244 8.71429Z" fill="url(#paint0_linear_162_371)"/>
</g>
<mask id="mask1_162_371" style="mask-type:luminance" maskUnits="userSpaceOnUse" x="1" y="1" width="32" height="26">
<path d="M3.40635 2.21477C-3.13227 5.58196 5.32487 25.7851 12.0593 26.0984C18.6762 26.4116 34.4942 14.9005 31.7926 8.51847C30.109 4.48567 17.854 1.19678 9.5926 1.19678C7.00847 1.19678 4.81588 1.51 3.40635 2.21477Z" fill="white"/>
</mask>
<g mask="url(#mask1_162_371)">
<path d="M33.3196 -5.42017L-7.59576 1.97983L-1.95767 33.0677L38.9968 25.6285L33.3196 -5.42017Z" fill="url(#paint1_radial_162_371)"/>
</g>
<path d="M31.4011 6.13013C30.0307 6.56081 27.8773 7.14812 24.9799 7.89203C20.164 9.14494 16.9534 8.98833 15.8963 8.94917C15.4656 8.94917 15.309 8.6751 15.0741 8.24441C14.7609 7.77457 14.4085 7.14812 13.3905 6.75658C12.8423 6.56081 12.3725 6.48251 9.35768 6.44335L6.85186 6.36505C4.89419 6.28674 4.34604 6.28674 4.15028 6.52166C4.03282 6.63912 4.07197 6.79574 4.07197 6.83489C4.15028 7.38304 4.89419 8.04865 9.74922 8.12695C13.1556 8.20526 13.6254 8.94917 14.0952 9.73224L14.291 10.0846L14.4868 10.3979C14.7217 10.8285 14.9566 11.2201 15.6614 11.3375C16.3661 11.455 19.1852 10.946 24.2751 10.0063L26.3111 9.65394C29.1302 9.14494 31.4402 8.47933 32.9672 7.73542C32.4974 7.18727 32.0275 6.63912 31.4011 6.13013Z" fill="white"/>
<path d="M31.4011 6.09094C30.1481 6.48248 27.9947 7.10893 24.9799 7.85285C20.164 9.10576 16.9534 8.94914 15.8963 8.90999C15.4656 8.90999 15.309 8.63592 15.0741 8.24438C14.7608 7.73539 14.4085 7.14809 13.3513 6.75655C12.8032 6.56078 12.3333 6.48248 9.27936 6.44332L6.77354 6.36502C4.77672 6.28671 4.26772 6.28671 4.0328 6.52163C3.9545 6.59994 3.91534 6.7174 3.9545 6.83486C4.0328 7.42216 4.77672 8.08777 9.6709 8.16607C13.0772 8.24438 13.5079 8.94914 13.9778 9.73221L14.1735 10.0846L14.3693 10.3978C14.6042 10.8285 14.8783 11.2592 15.5439 11.3375C16.2487 11.455 19.0677 10.946 24.1185 10.0063L26.1545 9.65391C28.9344 9.14491 31.2836 8.4793 32.8106 7.73539H32.8497V7.69623C32.5365 7.18724 32.0275 6.59994 31.4011 6.09094ZM24.9799 7.93115C27.9947 7.14808 30.109 6.56078 31.4011 6.16925C32.0275 6.67824 32.4974 7.22639 32.8497 7.77454C31.3228 8.4793 28.9735 9.14491 26.2328 9.65391L24.1968 10.0454C19.1069 10.946 16.327 11.4158 15.5831 11.3375C14.9175 11.2592 14.6825 10.8285 14.4476 10.437L14.2519 10.1237L14.0561 9.77137C13.5862 8.9883 13.1556 8.24438 9.71005 8.16607C4.85503 8.08777 4.11111 7.42216 4.0328 6.87401C3.99365 6.75655 4.0328 6.63909 4.11111 6.59994C4.30688 6.36502 4.89418 6.40417 6.8127 6.44332L9.31852 6.52163C12.3725 6.56078 12.8032 6.63909 13.3513 6.83486C14.3693 7.22639 14.7217 7.81369 15.0349 8.28354C15.309 8.71422 15.4656 8.9883 15.8963 8.9883C16.9143 9.02745 20.1249 9.14491 24.9799 7.93115ZM33.3196 8.75338C31.7143 9.81052 26.3111 12.8253 16.8751 14.3915C9.47513 15.6444 2.50582 14.7439 0.939682 14.5481C1.0963 15.1354 1.29206 15.7618 1.48783 16.3491C2.81905 16.9364 7.63492 18.4243 11.8243 18.8941C16.4444 19.4031 16.4444 17.9544 16.5619 17.5237C16.6794 17.0931 17.1101 16.7015 17.5799 16.5449C18.0889 16.4274 19.8899 16.6624 26.0762 14.7047C30.1481 13.4126 32.4582 11.5333 33.5153 10.2412C33.5545 9.73221 33.4762 9.22322 33.3196 8.75338Z" fill="white"/>
<path d="M33.3196 8.75336C32.3407 9.41897 26.9376 12.7079 16.8751 14.3915C12.2159 15.1745 6.96931 15.2137 1.25291 14.5481L0.939682 14.5089V14.5481C1.0963 15.1745 1.29206 15.7618 1.48783 16.3491C2.97566 17.0147 7.79153 18.4634 11.8243 18.8941C16.1704 19.3639 16.4444 18.1502 16.5619 17.602L16.6011 17.5237C16.7185 17.093 17.1492 16.7015 17.619 16.5841C17.7365 16.5449 17.854 16.5449 18.0889 16.5449C19.0286 16.4666 21.182 16.3491 26.1153 14.7438C30.7354 13.256 32.8497 11.1417 33.5545 10.2803C33.5937 9.7322 33.5153 9.2232 33.3196 8.75336ZM16.8751 14.4306C26.8984 12.747 32.3016 9.45813 33.3196 8.79252C33.437 9.2232 33.5153 9.69305 33.5153 10.1629V10.2803C32.8106 11.1026 30.6963 13.256 26.1153 14.7047C21.182 16.2708 19.0286 16.4274 18.128 16.5057C17.8931 16.5057 17.7365 16.5449 17.619 16.5449C17.1492 16.6624 16.6794 17.093 16.5619 17.5237L16.5228 17.602C16.4053 18.111 16.1312 19.3248 11.8243 18.855C7.79153 18.4243 2.93651 16.9756 1.48783 16.31C1.29206 15.7618 1.13545 15.1354 0.939682 14.5481C0.978835 14.5481 1.1746 14.5872 1.1746 14.5872C6.96931 15.292 12.2159 15.2137 16.8751 14.4306Z" fill="white"/>
<path d="M3.7979 12.2772C3.7979 12.3555 3.7979 12.5121 3.99366 12.6296C4.34605 12.8645 7.04763 13.7258 10.0624 13.4518C12.9598 13.1777 13.6254 12.8645 13.8212 12.4338C13.8603 12.3555 13.9386 12.1989 13.8995 11.9639C13.8995 11.8856 13.8603 11.8465 13.8603 11.8073C13.6646 11.3375 13.273 11.4158 12.9206 11.5333C12.8815 11.5333 12.6074 11.6116 12.6074 11.6116C12.0984 11.7682 11.0413 12.0814 8.69208 12.1206C6.69525 12.1597 5.44234 11.9248 4.85504 11.8073L4.34605 11.729C4.15028 11.7682 3.8762 12.0031 3.7979 12.2772Z" fill="white"/>
<path d="M12.8815 11.4942L12.5683 11.5725C12.0593 11.7291 11.0021 12.0424 8.69208 12.0815C6.69525 12.1207 5.44234 11.8857 4.85504 11.7683L4.34605 11.69C4.15028 11.7291 3.83705 11.964 3.7979 12.2381C3.7979 12.3164 3.7979 12.5122 3.99366 12.6297C4.34605 12.8646 7.04763 13.7651 10.0624 13.4519C12.9598 13.1778 13.6254 12.8646 13.8603 12.4339C13.8995 12.3556 13.9778 12.199 13.9386 11.9249L13.8995 11.7683C13.6646 11.2984 13.2339 11.4159 12.8815 11.4942ZM8.69208 12.1207C11.0413 12.0815 12.0984 11.7291 12.6074 11.6117L12.9206 11.5334C13.273 11.4551 13.6646 11.3376 13.8603 11.8074L13.8995 11.964C13.9778 12.199 13.8995 12.3556 13.8212 12.4339C13.6254 12.8646 12.9598 13.1387 10.0624 13.4127C7.04763 13.726 4.34605 12.8254 4.03282 12.5905C3.8762 12.5122 3.83705 12.3947 3.83705 12.2773V12.2381C3.8762 12.0032 4.15028 11.7683 4.34605 11.7291L4.85504 11.8074C5.44234 11.9249 6.69525 12.199 8.69208 12.1207ZM4.30689 9.41908L4.22859 9.654V9.7323C4.26774 9.88892 4.30689 10.2805 4.81589 10.3588L4.9725 10.3979C5.5598 10.4762 6.81271 10.672 8.80954 10.6328H10.7281C11.746 10.6328 12.0984 10.6328 12.255 10.5545C12.4508 10.3979 12.4508 10.3588 12.4508 10.2021V10.0847C12.4508 9.61484 11.981 9.53654 11.5111 9.53654H10.8455L8.22224 9.49738C7.2434 9.45823 6.18626 9.30162 5.4815 9.22331L4.77673 9.145C4.65927 9.10585 4.42435 9.26246 4.30689 9.41908Z" fill="white"/>
<path d="M4.30688 9.37985L4.22858 9.61477V9.69307C4.26773 9.84969 4.30688 10.2412 4.81588 10.3195L4.97249 10.3587C5.59895 10.437 6.8127 10.6328 8.80953 10.5936H10.8064C11.746 10.5936 12.1376 10.5936 12.255 10.4761C12.4508 10.3195 12.4508 10.2804 12.4508 10.0846V9.96715C12.4508 9.49731 11.981 9.419 11.5111 9.419H10.8455L8.22223 9.37985C7.24339 9.34069 6.18625 9.18408 5.48149 9.10577L4.77672 9.02747C4.62011 9.10577 4.38519 9.22323 4.30688 9.37985ZM4.81588 9.10577L5.52064 9.18408C6.2254 9.26239 7.28254 9.419 8.26138 9.45815L10.8847 9.49731H11.5503C11.981 9.49731 12.4508 9.57561 12.4508 10.0063V10.1238C12.4508 10.3195 12.4508 10.3195 12.255 10.4761C12.0984 10.5936 11.746 10.5936 10.8064 10.5544H8.80953C6.8127 10.5544 5.55979 10.3978 4.97249 10.3195C4.93334 10.3195 4.81588 10.2804 4.81588 10.2804C4.30688 10.2021 4.26773 9.84969 4.26773 9.69307V9.61477C4.26773 9.61477 4.30688 9.419 4.34604 9.37985C4.42434 9.26239 4.65926 9.14493 4.81588 9.10577Z" fill="white"/>
</g>
<defs>
<linearGradient id="paint0_linear_162_371" x1="26.7017" y1="-1.39693" x2="16.1952" y2="15.2517" gradientUnits="userSpaceOnUse">
<stop stop-color="#F7AA9E"/>
<stop offset="0.071" stop-color="#F58B85"/>
<stop offset="0.177" stop-color="#F26366"/>
<stop offset="0.281" stop-color="#EF434E"/>
<stop offset="0.381" stop-color="#ED2D3C"/>
<stop offset="0.477" stop-color="#EC2032"/>
<stop offset="0.562" stop-color="#EC1B2E"/>
<stop offset="0.686" stop-color="#E91B2D"/>
<stop offset="0.791" stop-color="#DE1B2B"/>
<stop offset="0.89" stop-color="#CD1A26"/>
<stop offset="0.984" stop-color="#B41A20"/>
<stop offset="1" stop-color="#AF1A1F"/>
</linearGradient>
<radialGradient id="paint1_radial_162_371" cx="0" cy="0" r="1" gradientUnits="userSpaceOnUse" gradientTransform="translate(24.5866 5.98625) rotate(169.695) scale(22.7971 19.1017)">
<stop stop-color="#F7AA9E"/>
<stop offset="0.071" stop-color="#F58B85"/>
<stop offset="0.177" stop-color="#F26366"/>
<stop offset="0.281" stop-color="#EF434E"/>
<stop offset="0.381" stop-color="#ED2D3C"/>
<stop offset="0.477" stop-color="#EC2032"/>
<stop offset="0.562" stop-color="#EC1B2E"/>
<stop offset="0.716" stop-color="#E91C2D"/>
<stop offset="0.847" stop-color="#DE1D2B"/>
<stop offset="0.97" stop-color="#CD2028"/>
<stop offset="1" stop-color="#C72127"/>
</radialGradient>
<clipPath id="clip0_162_371">
<rect width="111" height="28" fill="white"/>
</clipPath>
</defs>
</svg>
